PathFileType	4	(X/Y/Z)	C:/Users/beibeiliu/ov580/test_trc/User2\sequence.15_training_dense_right.trc
DataRate	CameraRate	NumFrames	NumMarkers	Units	OrigDataRate	OrigDataStartFrame	OrigNumFrames
120	120	24	19	mm	120	103	273
Frame#	Time	ThumbCMC			ThumbMCP			ThumbIP			ThumbTip			IndexMCP			IndexPIP			IndexTip			MiddleMCP			MiddlePIP			MiddleTip			RingMCP			RingPIP			RingTip			PinkyMCP			PinkyPIP			PinkyTip			BackHand1			BackHand2			BackHand3	
		X0	Y0	Z0	X1	Y1	Z1	X2	Y2	Z2	X3	Y3	Z3	X4	Y4	Z4	X5	Y5	Z5	X6	Y6	Z6	X7	Y7	Z7	X8	Y8	Z8	X9	Y9	Z9	X10	Y10	Z10	X11	Y11	Z11	X12	Y12	Z12	X13	Y13	Z13	X14	Y14	Z14	X15	Y15	Z15	X16	Y16	Z16	X17	Y17	Z17	X18	Y18	Z18	
102	0.85	17.7711	5.12084	72.1188	-8.36854	1.3977	51.1805	-29.8712	1.11092	20.11	-38.9268	-5.25329	2.75418	-2.23657	12.5376	-2.41221	-14.6028	-18.127	-6.66208	-2.61211	-36.2492	23.6816	14.7789	0.49293	-14.9949	2.84489	-34.2806	-6.39128	20.2621	-29.9627	32.5062	32.3526	-9.07978	-21.1738	15.677	-35.8425	-17.1857	25.6241	-35.0001	18.6295	54.8387	-7.22638	-18.6613	42.1283	-11.2396	-40.3254	31.2133	-11.2254	-61.4224	67.4389	13.0069	25.6329	85.3177	8.93335	59.0494	49.984	25.764	55.056	
103	0.858333	16.3896	11.6259	72.4407	-5.08164	10.0681	47.1526	-22.0114	12.5493	16.5191	-34.5086	12.8211	-8.12251	4.5613	23.7608	-7.53299	-10.9069	-5.76222	-10.0058	-2.37216	-23.6095	19.7773	22.9789	13.4813	-17.8815	5.49455	-18.4082	-12.2729	16.9816	-21.4445	24.5787	35.8923	5.3487	-25.3258	22.1521	-20.9537	-24.528	29.6092	-25.3816	11.2046	62.9292	5.0823	-21.6332	50.5107	5.43048	-40.9559	41.0667	8.99978	-62.9614	74.305	19.8489	27.2408	85.7607	14.3491	60.6446	49.4875	33.6799	59.013	
104	0.866667	21.8711	15.1098	67.7424	-4.9406	20.3261	41.9828	-16.3596	23.7324	9.9424	-25.5528	22.9548	-11.8589	8.15498	38.0624	-7.4334	-6.48373	6.1291	-15.8067	5.02746	-13.9497	11.1756	24.2418	26.452	-20.9262	13.0593	-7.78174	-19.8468	23.7266	-14.5594	18.3846	44.7708	15.9548	-28.282	25.3452	-9.70954	-27.6875	36.115	-16.7109	6.90856	70.6376	14.77	-19.7884	59.7414	15.9405	-44.0751	48.4247	24.0107	-67.7369	79.1117	26.3455	31.179	89.0628	16.3347	61.5121	55.736	35.3499	57.3083	
105	0.875	22.736	21.7291	63.0502	-1.26917	24.5528	36.632	-14.3989	30.0992	2.75275	-19.2204	30.1975	-21.138	13.9537	41.93	-13.7155	0.798412	13.5309	-21.4657	7.68711	-7.80074	4.67157	32.6746	30.606	-24.0799	19.3223	-0.797969	-25.7342	27.1269	-8.88719	14.6853	48.0173	21.532	-31.6307	31.2311	-4.01394	-30.852	36.164	-11.4689	2.06277	75.8569	19.8974	-21.9304	63.9672	22.9051	-47.8507	58.2095	28.2455	-68.1276	81.4109	30.9549	27.1418	89.1906	22.6816	60.4166	54.6139	41.9529	53.7549	
106	0.883333	21.1343	25.8586	59.5229	1.17805	26.1827	31.4935	-8.4496	29.4325	-4.20775	-13.0281	25.9208	-25.7858	22.6249	39.5327	-20.3753	10.7401	13.022	-28.9025	15.0923	-8.82268	2.02293	40.6045	27.2852	-29.9627	26.0918	-5.31948	-27.3909	33.1075	-7.06189	14.8965	55.3656	20.5382	-34.7007	39.9584	-5.08522	-35.7028	40.5832	-10.4834	-0.864401	83.9615	17.5472	-23.2141	74.6805	18.925	-52.48	70.4095	22.6662	-71.7357	89.1868	32.5675	23.5222	95.4001	24.2724	57.9134	58.6026	45.9025	48.223	
107	0.891667	23.8309	25.7435	53.1502	8.95175	21.2931	22.564	-1.74556	20.8487	-12.6723	-8.83508	16.331	-35.5787	26.5425	34.0494	-27.4074	12.2088	2.38114	-31.9955	19.2842	-13.0947	2.27466	44.3345	19.5315	-35.9667	30.7895	-11.8608	-29.0506	39.6168	-13.3575	9.538	62.3971	11.4036	-36.8941	48.8472	-18.5323	-34.7472	47.2162	-15.3829	-0.709894	89.4056	11.5562	-28.1305	82.7527	10.3432	-50.383	74.7925	13.0247	-75.5766	91.8975	29.4907	20.1106	94.3926	29.0177	52.4922	61.1263	45.7101	43.4408	
108	0.9	29.1187	23.679	47.3672	9.4479	16.0528	15.7136	-2.33343	7.87423	-16.4006	-2.64866	-1.02754	-39.3683	32.7992	20.9021	-32.3832	19.6414	-13.3336	-32.6593	22.1657	-22.1204	2.59429	51.1744	9.19151	-35.1976	39.6584	-26.6149	-28.2896	40.8252	-17.3811	11.3907	67.4184	-5.46092	-39.3672	54.606	-32.6489	-31.6339	54.6715	-24.5017	5.45393	93.3366	-0.744786	-30.4179	87.0307	-6.32915	-50.6269	83.269	-10.3833	-77.05	95.1599	23.3812	17.5544	95.2914	30.1775	49.1945	64.3804	45.2579	35.5244	
109	0.908333	28.8545	23.0872	44.215	12.3786	8.53334	18.807	1.37928	-6.17137	-15.8827	-0.874762	-18.7889	-36.1618	32.6769	7.02688	-31.9462	20.6188	-24.9608	-29.9939	24.0958	-32.912	8.86207	53.5496	-12.7335	-35.6967	36.6233	-37.761	-19.9011	44.8878	-23.8646	16.9951	71.4981	-23.4797	-33.8649	56.6148	-47.5016	-23.9045	55.0551	-33.7258	11.1874	93.6209	-14.0305	-25.9945	88.187	-27.5908	-49.8014	79.6042	-36.8122	-71.0633	95.2523	17.1637	14.7116	100.864	26.8319	45.4909	66.311	37.9513	31.3151	
110	0.916667	29.7237	20.8821	42.2245	10.3867	1.91779	22.0968	-4.80315	-14.5428	-4.62705	-9.90226	-30.57	-26.3623	32.932	-7.70648	-27.9625	18.2896	-38.9154	-17.9492	19.7667	-39.8472	17.0664	47.4736	-21.0095	-29.5964	35.1578	-48.9053	-5.42076	43.8752	-24.5138	24.336	66.4291	-35.1254	-25.315	46.6931	-56.487	-7.58708	50.9099	-39.0021	19.7674	90.8027	-28.6907	-22.4992	79.4672	-43.4166	-41.6798	73.7701	-59.0944	-62.7938	95.792	8.88753	14.1971	100.572	22.0467	45.4858	66.9986	34.6984	25.3879	
111	0.925	33.0537	19.0242	47.3027	9.73904	1.41215	31.6099	-9.97874	-15.4321	8.1278	-18.4402	-32.6902	-9.44912	22.9052	-14.4078	-21.1279	7.95454	-42.744	-6.61086	14.1025	-39.6862	28.2336	40.3006	-30.6267	-21.8232	24.2689	-51.7905	2.1672	39.5742	-22.1897	30.5401	55.9497	-45.8127	-16.152	38.5341	-60.5159	5.3166	48.6676	-37.1927	32.3878	80.2676	-38.0051	-14.6745	67.4503	-56.4808	-33.3903	57.6872	-71.4718	-49.4717	87.9482	3.78491	10.4867	102.919	16.3208	40.4972	67.1064	32.4763	28.679	
112	0.933333	33.2968	24.3883	50.4023	9.13999	6.5246	34.6968	-14.3588	-9.08564	16.3627	-29.8442	-24.9494	1.1503	13.1304	-10.8267	-13.2378	-1.14972	-38.6871	3.22208	7.9303	-35.9184	33.8724	25.1322	-32.2484	-13.9633	15.5807	-50.5622	11.8866	31.5348	-20.2666	36.9252	40.0394	-47.0474	-8.38856	26.8327	-58.9507	18.6778	44.0199	-33.871	40.9125	70.0922	-45.776	-10.9923	55.0482	-64.2088	-27.5738	38.8165	-77.293	-40.9215	87.0038	-2.51832	9.90146	101.135	12.5951	38.5236	66.2588	28.2168	27.4445	
113	0.941667	34.3456	33.5555	54.716	4.24517	20.2909	42.5565	-20.4145	4.54315	18.6121	-36.6657	-8.17236	9.64697	9.25993	-4.25278	-11.033	-11.9541	-23.7919	5.53128	6.20271	-23.1101	40.9457	22.4982	-27.3947	-9.57791	7.66023	-41.4378	21.5641	26.7508	-17.7947	41.3118	29.3603	-41.9365	-2.70611	17.9527	-54.9389	24.358	36.8174	-27.8046	45.3486	57.2325	-47.0892	-9.75214	38.1995	-59.3242	-23.4215	26.7589	-72.2234	-36.031	80.6882	-5.03996	12.4804	98.9264	9.84509	42.8564	68.0452	30.1836	30.4358	
114	0.95	36.7729	39.5579	52.991	8.42974	31.4477	41.3953	-15.7863	19.2142	20.7593	-35.0677	7.88662	3.70551	6.79764	9.27969	-11.1254	-13.1432	-10.0087	6.78197	6.39642	-7.18071	37.2945	16.5167	-17.9014	-11.4923	-1.97406	-26.8231	15.7831	21.7066	-8.03622	41.1326	22.453	-31.5259	-5.35861	8.05549	-41.8302	23.1089	28.4626	-24.7543	43.7287	52.5853	-41.3619	-9.20844	31.4087	-51.6441	-24.4971	18.3716	-60.6549	-37.8249	82.6943	-3.19967	16.6552	96.9582	9.71018	39.3049	70.3299	34.0002	31.8853	
115	0.958333	40.1736	47.0461	55.9316	9.17843	43.0223	38.1486	-15.1263	35.2023	14.998	-30.057	22.2701	-2.33246	13.0637	21.3717	-15.8067	-11.2738	4.92596	2.27679	10.7437	12.7331	31.9619	17.2346	-1.40047	-16.9714	-2.36268	-16.257	12.6649	21.8082	4.14125	38.3263	27.4449	-21.6566	-12.1733	3.67356	-28.4988	9.20068	25.2718	-16.3925	36.1285	48.8754	-28.7936	-13.7993	28.7686	-35.9771	-30.4242	16.0287	-40.5584	-46.7536	81.7641	2.07358	16.7407	97.2105	10.5161	43.5289	75.7983	36.8395	28.6686	
116	0.966667	42.1942	48.4812	50.9955	11.7704	47.5995	32.3642	-12.6595	44.9123	6.29247	-25.4389	35.8882	-9.48111	17.9582	33.8166	-20.34	-6.67433	16.5862	-2.72852	20.085	20.7704	22.9051	21.0394	12.2078	-23.9991	1.23453	-5.99539	1.33094	23.0475	6.26838	31.2729	28.8129	-8.16103	-23.0598	7.28485	-19.8697	-5.10241	23.3922	-9.17366	24.1796	54.526	-14.6804	-21.1557	40.1629	-21.4902	-37.4825	23.0195	-22.3352	-58.7415	82.6181	11.0786	11.2814	100.22	16.8177	45.1888	78.0409	46.2518	32.8709	
117	0.975	41.5745	49.5188	48.5635	12.7852	51.3154	28.7575	-4.34877	46.0106	-0.785143	-20.9694	42.3966	-22.6654	20.3491	43.2124	-26.061	0.0360252	23.6796	-12.5336	22.7688	26.2551	16.061	30.6771	20.5199	-31.2212	5.83022	3.76639	-15.9032	23.3009	9.66553	22.5523	40.9353	-0.133704	-33.0477	16.0282	-11.3647	-19.9428	27.9694	-1.47245	14.9841	64.7305	-7.60536	-30.1392	52.3033	-9.97346	-47.055	36.9403	-9.61838	-71.1669	87.1382	18.4966	10.3414	100.842	15.9108	44.4699	77.3932	49.1381	29.2114	
118	0.983333	39.79	51.3727	47.0271	16.1166	48.9459	18.8064	-3.11504	47.1743	-7.54693	-13.2152	41.7811	-31.8364	29.8138	46.8831	-30.2165	6.69456	23.8256	-22.9959	24.807	26.7421	9.48044	41.3137	25.8013	-36.0483	14.4428	4.12634	-25.5719	29.1606	6.48626	13.7685	49.9053	3.91576	-41.7783	25.6511	-10.8037	-27.6916	32.2311	-0.535657	5.14076	76.3817	-1.00261	-30.4272	63.6718	-5.5074	-58.632	53.279	-2.96319	-76.2975	94.557	22.4791	10.5316	102.933	20.327	42.6862	80.1401	52.3589	28.0359	
119	0.991667	38.3086	46.8195	40.5915	15.6178	44.8375	14.0073	1.99837	40.5264	-15.081	-8.30112	33.9739	-38.3345	33.7189	44.3118	-34.7622	15.419	16.3762	-29.3869	29.6016	21.0097	2.58154	45.266	22.4273	-43.4813	22.0714	-1.12535	-30.2481	34.3847	1.78432	6.30282	58.8122	7.75123	-43.4533	34.8692	-13.3715	-34.0568	38.4666	-4.4236	-2.94194	85.9697	-0.975994	-33.6246	72.1906	-2.12814	-61.0442	64.3273	-1.88422	-81.9677	95.2948	25.256	10.1471	102.939	26.8895	39.3515	76.0503	53.4266	27.7316	
120	1	36.5927	43.1171	37.1847	14.9056	38.8666	6.81617	4.00725	30.2456	-22.6298	-5.03337	22.9039	-44.1542	34.9084	30.9961	-42.211	17.9374	7.31053	-33.2496	32.9152	12.649	-1.852	47.1581	15.5137	-46.2032	29.4574	-10.4963	-34.647	37.874	-1.71806	5.5484	64.292	-0.113435	-45.5092	42.6503	-21.6598	-38.2288	45.6335	-12.7229	-3.1452	91.0266	-4.45559	-35.4881	81.6701	-8.50987	-59.1	72.823	-9.71812	-84.3227	96.1229	25.5276	3.95615	103.713	28.403	41.3183	77.0575	51.9259	23.7921	
121	1.00833	36.6098	38.1422	32.6819	15.1175	28.6404	9.90918	4.48987	19.1322	-26.0684	-5.22309	9.8694	-45.9572	37.9792	21.6873	-43.0074	18.9867	-3.35867	-31.5868	34.646	8.47498	-1.3508	54.696	3.43675	-45.2251	31.0636	-20.9205	-32.9452	42.7902	-4.82953	6.21134	67.7239	-13.1161	-44.8049	45.2426	-32.6702	-31.1939	47.6139	-15.1311	0.401208	92.234	-12.0399	-37.0065	82.7135	-17.563	-59.1317	75.6727	-24.6906	-83.7524	98.4441	19.9087	2.74208	105.179	22.8943	36.3848	77.682	43.6717	18.3831	
122	1.01667	36.6993	35.5295	31.0578	13.6469	23.5521	9.02974	1.81604	10.7048	-21.1283	-4.73741	-1.31467	-43.1739	31.4453	11.1485	-42.9985	15.9885	-12.5014	-27.9618	28.3905	0.48952	-1.03916	50.2288	-5.96572	-43.5667	29.6811	-30.4695	-27.431	38.362	-9.32028	7.98948	61.2651	-26.2516	-40.4573	39.3332	-41.2743	-22.9534	48.2516	-22.0001	7.47801	85.1135	-21.7746	-36.2506	77.1693	-31.7509	-54.6764	67.5951	-45.6105	-79.2805	99.4977	10.9611	0.0344073	107.367	18.0997	37.1755	76.1953	42.8725	19.039	
123	1.025	40.9908	36.6396	32.7677	14.2897	25.2956	8.17283	0.0266473	11.4462	-14.7676	-16.5533	-0.473515	-35.8804	28.1251	6.27496	-40.0896	8.26223	-13.1395	-24.0824	30.746	2.36907	3.96029	42.8137	-16.9256	-39.1575	18.5914	-31.9399	-17.4338	31.9858	-11.0172	12.3239	48.407	-36.1143	-33.192	27.6501	-43.4816	-11.3437	41.6216	-24.2908	14.1781	79.84	-37.8075	-28.5522	63.8716	-51.4714	-50.6923	53.1681	-60.5747	-69.1073	97.6626	-1.6001	1.94998	107.946	11.0633	34.3944	79.5636	34.4237	15.8987	
124	1.03333	47.9166	36.1349	29.9901	20.1838	30.6621	11.9313	-2.6389	17.523	-13.231	-17.1137	5.03543	-29.6359	23.2322	3.36051	-36.7903	3.74261	-8.339	-16.7492	25.6932	5.87031	6.88609	30.2584	-18.7316	-35.2209	8.49476	-30.2708	-12.628	28.4434	-9.01796	19.0448	37.0892	-41.0872	-22.207	15.3066	-42.3427	0.165376	35.0565	-18.2018	21.5555	63.9183	-50.9827	-23.2674	46.1547	-61.512	-39.5773	32.2757	-68.0574	-55.5178	89.8337	-12.2577	4.08068	104.816	2.72963	35.0211	82.7947	27.7978	13.1648	
125	1.04167	56.2896	38.9171	28.8679	25.0024	37.5483	8.2859	1.90516	27.453	-12.3054	-16.5474	18.8753	-30.0855	25.9721	6.05438	-34.1553	0.0313646	1.9884	-15.6315	28.1326	10.926	8.52862	27.5612	-21.1847	-29.8159	-1.84527	-16.4076	-5.65385	25.6573	-2.13802	22.6209	24.4424	-36.2401	-16.5632	5.23773	-32.0405	9.68854	27.6597	-13.1784	25.6924	49.9042	-51.1453	-12.7727	32.9283	-60.2745	-28.2013	15.7224	-68.1013	-44.9939	86.9147	-24.8332	7.17893	101.763	-11.9444	36.4311	86.4503	17.7956	11.8762	
